<?xml version="1.0" standalone="no"?>
<!DOCTYPE svg PUBLIC "-//W3C//DTD SVG 20010904//EN"
 "http://www.w3.org/TR/2001/REC-SVG-20010904/DTD/svg10.dtd">
<svg version="1.0" xmlns="http://www.w3.org/2000/svg"
 width="700.000000pt" height="700.000000pt" viewBox="0 0 700.000000 700.000000"
 preserveAspectRatio="xMidYMid meet">
<metadata>
Created by potrace 1.11, written by Peter Selinger 2001-2013
</metadata>
<g transform="translate(0.000000,700.000000) scale(0.100000,-0.100000)"
fill="#000000" stroke="none">
<path d="M3298 6996 c-1 -2 -41 -6 -88 -9 -130 -9 -256 -27 -435 -62 -16 -3
-66 -15 -110 -26 -44 -11 -90 -22 -102 -25 -40 -8 -263 -84 -363 -124 -98 -39
-322 -146 -415 -197 -303 -169 -607 -411 -864 -689 -91 -100 -100 -109 -182
-214 -221 -280 -410 -623 -540 -983 -65 -179 -148 -523 -165 -678 -3 -29 -7
-65 -10 -79 -26 -151 -25 -655 1 -825 3 -16 7 -50 10 -75 3 -25 7 -56 10 -70
3 -14 7 -38 10 -55 15 -107 75 -344 120 -479 106 -316 227 -564 410 -841 204
-307 438 -561 755 -819 269 -218 742 -473 1060 -571 188 -57 286 -82 459 -115
134 -26 204 -35 346 -47 172 -15 617 -7 710 12 11 2 45 7 75 11 77 9 94 11
127 18 15 4 42 9 58 11 93 15 321 76 455 122 489 166 957 455 1325 820 94 93
220 232 275 303 19 25 38 50 43 55 173 215 366 554 481 845 77 198 156 466
181 620 3 19 10 58 15 85 13 65 29 189 38 290 13 158 5 651 -13 715 -2 8 -6
38 -9 65 -3 28 -8 61 -11 75 -6 27 -11 54 -20 110 -3 19 -17 82 -30 140 -115
498 -351 979 -683 1388 -95 117 -86 107 -209 235 -79 82 -171 167 -303 281
-19 17 -84 67 -145 111 -448 326 -989 553 -1510 631 -27 4 -52 8 -55 9 -3 1
-41 5 -85 10 -44 4 -89 10 -100 12 -26 4 -512 12 -517 9z m279 -1331 c48 -20
80 -50 106 -100 19 -37 21 -57 21 -291 l1 -251 245 0 c263 0 293 -5 349 -56
80 -73 82 -214 5 -290 -64 -64 -44 -62 -559 -64 -258 -1 -493 -4 -522 -7 -166
-18 -315 -142 -372 -309 -21 -62 -27 -192 -11 -244 41 -129 122 -236 219 -287
110 -57 123 -59 436 -61 313 -2 363 -6 470 -37 226 -66 421 -231 533 -453 55
-110 83 -237 83 -383 0 -51 -2 -100 -5 -110 -3 -9 -7 -33 -10 -54 -29 -193
-188 -425 -378 -551 -116 -76 -302 -137 -420 -137 -24 0 -48 -4 -53 -8 -7 -4
-11 -97 -11 -252 0 -228 -2 -248 -21 -285 -53 -102 -167 -142 -269 -96 -42 19
-95 78 -110 121 -4 14 -9 133 -10 265 -1 132 -2 243 -3 246 0 3 -110 6 -244 6
-221 0 -247 2 -288 20 -58 26 -88 61 -109 124 -26 75 -11 144 42 198 67 69 43
66 566 67 260 1 494 5 521 8 169 20 304 133 371 308 14 38 18 72 16 151 -1 95
-4 107 -38 178 -61 124 -156 206 -285 245 -48 14 -107 17 -343 19 -318 2 -373
7 -478 41 -461 151 -710 632 -561 1088 68 207 199 370 390 483 95 56 241 102
348 110 47 3 88 8 91 10 2 2 5 115 6 251 0 230 2 250 21 287 51 98 162 141
260 100z"/>
</g>
</svg>
